# xmcd
#
# Track frame offsets:
# 150
# 12328
# 23569
# 33565
# 44120
# 58556
# 73014
# 86788
# 99598
# 111540
# 121935
# 137771
#
# Disc length: 2008 seconds
#
#
# Revision: 0
# Processed by: cddbd v1.5.1PL0 Copyright (c) Steve Scherf et al.
# Submitted via: FreeRIP 2.942 
#
DISCID=aa07d60c
DTITLE=Bill Anderson - Just As I Am
DYEAR=1900
DGENRE=Gospel
TTITLE0=Just As I Am
TTITLE1=Standing On The Promises
TTITLE2=Angel Band
TTITLE3=Blessed Assurance
TTITLE4=Just A Closer Walk With Thee
TTITLE5=The Old Country Church
TTITLE6=Where He Leads Me
TTITLE7=I Can Do Nothing Alone
TTITLE8=Precious Memories
TTITLE9=Light At The River
TTITLE10=Papa
TTITLE11=Peace In The Valley
EXTD=
EXTT0=
EXTT1=
EXTT2=
EXTT3=
EXTT4=
EXTT5=
EXTT6=
EXTT7=
EXTT8=
EXTT9=
EXTT10=
EXTT11=
PLAYORDER=
